<?xml version="1.0" standalone="no"?>
<!DOCTYPE svg PUBLIC "-//W3C//DTD SVG 20010904//EN"
 "http://www.w3.org/TR/2001/REC-SVG-20010904/DTD/svg10.dtd">
<svg version="1.0" xmlns="http://www.w3.org/2000/svg"
 width="300.000000pt" height="300.000000pt" viewBox="0 0 300.000000 300.000000"
 preserveAspectRatio="xMidYMid meet">
<metadata>
Created by potrace 1.10, written by Peter Selinger 2001-2011
</metadata>
<g transform="translate(0.000000,300.000000) scale(0.100000,-0.100000)"
fill="#000000" stroke="none">
<path d="M725 2993 c-48 -10 -76 -28 -95 -58 -19 -31 -20 -49 -20 -365 0 -313
-1 -332 -17 -324 -28 12 -90 17 -128 10 -46 -9 -113 -73 -121 -115 -5 -25 -10
-30 -23 -25 -60 26 -139 14 -187 -28 -48 -42 -65 -80 -65 -143 0 -57 16 -98
50 -129 l21 -19 -39 -18 c-61 -27 -93 -84 -94 -162 0 -76 14 -105 81 -171 l51
-49 -42 -21 c-75 -38 -105 -114 -85 -211 10 -47 22 -62 221 -262 175 -177 216
-213 239 -213 21 0 32 7 40 25 11 24 3 34 -199 238 -227 228 -239 247 -209
306 19 37 44 51 87 51 29 0 54 -21 226 -192 l193 -192 0 -179 c0 -163 2 -183
20 -212 41 -67 24 -65 680 -65 656 0 639 -2 680 65 18 29 20 49 20 208 0 164
-1 177 -19 187 -11 5 -24 10 -30 10 -20 0 -41 -33 -41 -66 l0 -34 -610 0 -610
0 0 1018 c0 974 1 1020 18 1035 16 14 43 17 165 17 l147 0 0 -41 c0 -51 22
-98 58 -124 25 -18 43 -20 224 -20 196 0 196 0 223 25 38 35 55 73 55 120 l0
40 148 0 c132 0 151 -2 165 -18 15 -17 17 -71 17 -575 l0 -557 24 -15 c19 -13
29 -14 45 -5 21 11 21 15 21 581 0 626 1 616 -59 652 -31 18 -71 23 -71 9 0
-5 18 -23 40 -41 22 -17 40 -37 40 -43 0 -5 -16 4 -36 22 l-36 31 -150 -3
c-149 -3 -150 -3 -171 -30 l-22 -27 -33 30 -32 29 -171 0 -171 0 -33 -33 -33
-33 -12 22 c-20 36 -53 44 -195 44 l-134 0 -37 -32 c-30 -27 -35 -29 -25 -10
6 12 23 29 37 38 19 13 55 58 42 53 -2 -1 -12 -3 -23 -6z m775 -115 c0 -63
-15 -68 -188 -68 -175 0 -192 6 -192 67 l0 33 190 0 190 0 0 -32z m-840 -693
c0 -36 -3 -65 -7 -64 -5 0 -25 21 -47 45 -33 37 -36 44 -19 44 11 0 28 9 38
20 29 32 35 24 35 -45z m-81 -41 l31 -26 0 -134 0 -135 -87 92 c-94 97 -107
120 -98 157 17 70 98 94 154 46z m-193 -37 c-7 -31 9 -88 36 -122 30 -38 4
-22 -68 43 -44 40 -53 52 -38 52 11 0 31 11 44 25 29 31 34 31 26 2z m-101
-77 c15 -6 94 -77 176 -159 l149 -149 0 -134 0 -133 -225 225 c-207 208 -225
229 -225 261 0 39 22 76 54 89 29 12 40 12 71 0z m309 -200 c6 0 23 12 38 27
l28 27 0 -77 c0 -42 -3 -77 -6 -77 -6 0 -68 67 -120 130 l-29 35 40 -33 c22
-17 44 -32 49 -32z m-308 -117 c-1 -1 -21 7 -44 18 -58 29 -111 19 -152 -27
-25 -29 -30 -43 -30 -88 0 -44 6 -61 32 -97 17 -24 24 -38 15 -30 -9 7 -34 39
-55 70 l-39 56 34 49 c18 26 45 58 60 69 55 43 66 75 38 113 -34 44 -10 26 64
-50 44 -44 79 -82 77 -83z m-63 -14 c12 -6 104 -93 205 -192 l182 -182 0 -135
0 -135 -250 250 c-170 170 -254 261 -261 283 -25 77 53 147 124 111z m437
-294 c0 -41 -3 -75 -6 -75 -6 0 -70 70 -107 117 l-19 23 36 -21 35 -21 23 25
c13 14 26 25 31 26 4 1 7 -33 7 -74z m-403 -54 l43 -49 -46 25 c-63 35 -116
28 -161 -21 -28 -31 -33 -43 -33 -87 0 -40 6 -60 25 -85 14 -18 25 -35 25 -39
0 -13 -18 6 -58 63 l-41 59 34 48 c19 26 52 63 75 82 44 38 49 60 23 101 -16
24 -13 22 27 -11 25 -20 64 -59 87 -86z m342 -311 c11 0 26 9 33 20 22 35 28
22 28 -55 0 -41 -3 -75 -6 -75 -3 0 -16 12 -27 28 -12 15 -42 49 -67 76 -38
43 -40 47 -13 28 17 -12 40 -22 52 -22z m98 -229 c20 -16 20 -16 -13 -44 l-34
-29 0 63 c0 54 2 60 13 45 7 -10 23 -25 34 -35z m1273 -17 l0 -56 -33 29 -33
28 25 26 c14 15 29 27 34 28 4 0 7 -24 7 -55z m-50 -121 c0 -124 61 -113 -611
-113 -512 0 -579 2 -593 16 -12 11 -16 36 -16 95 l0 79 610 0 610 0 0 -77z"/>
<path d="M1277 2473 c-4 -3 -7 -25 -7 -47 0 -35 -5 -44 -29 -58 -62 -35 -86
-116 -54 -178 23 -43 76 -80 117 -80 38 0 56 -15 56 -46 0 -35 -33 -52 -90
-46 -81 8 -128 -39 -82 -81 10 -10 33 -17 50 -17 29 0 32 -3 32 -33 0 -38 15
-57 45 -57 30 0 45 19 45 57 0 26 9 42 45 76 41 40 45 47 45 93 0 81 -55 144
-125 144 -25 0 -65 31 -65 50 0 6 9 19 20 30 16 16 33 20 83 20 67 0 87 10 87
45 0 30 -19 45 -57 45 -31 0 -33 2 -33 33 0 18 -5 38 -12 45 -13 13 -60 16
-71 5z m83 -123 c0 -4 -18 -10 -41 -13 -23 -3 -52 -15 -65 -28 -39 -37 -27
-11 19 41 l42 48 23 -21 c12 -11 22 -24 22 -27z m-4 -380 c-20 -22 -36 -45
-36 -52 0 -6 -14 1 -31 18 l-30 29 42 7 c24 4 52 17 63 28 36 35 30 11 -8 -30z"/>
<path d="M2471 2235 c-125 -35 -218 -114 -274 -233 -30 -63 -32 -74 -32 -177
0 -104 2 -114 32 -176 40 -81 130 -169 210 -207 52 -24 70 -27 168 -27 103 0
114 2 177 32 131 62 226 186 236 309 5 63 -3 69 -24 18 -8 -20 -17 -34 -19
-32 -2 2 -1 39 2 82 6 78 6 79 22 50 l16 -29 3 38 c10 121 -115 283 -261 339
-69 27 -186 32 -256 13z m233 -105 c72 -28 148 -104 177 -179 65 -166 -6 -342
-170 -423 -37 -18 -63 -23 -131 -23 -73 0 -93 4 -141 28 -235 115 -252 441
-30 574 95 57 185 64 295 23z"/>
<path d="M2618 1883 l-86 -86 -27 32 c-40 47 -61 56 -91 36 -13 -8 -24 -25
-24 -36 0 -29 113 -139 143 -139 16 0 55 32 130 109 59 59 107 112 107 117 0
19 -32 54 -48 54 -9 0 -56 -39 -104 -87z m-43 -113 c-33 -34 -50 -37 -77 -13
-26 24 -22 33 10 21 22 -8 34 -7 57 5 42 23 43 21 10 -13z"/>
<path d="M1716 1733 c-71 -74 -101 -142 -101 -233 0 -115 25 -155 199 -329
139 -138 146 -144 170 -133 19 8 26 19 26 39 0 23 -25 53 -131 158 -75 75
-139 147 -150 170 -35 75 -20 186 33 242 l21 23 46 -38 c147 -119 431 -363
468 -402 128 -133 174 -350 109 -512 -25 -61 -263 -402 -328 -468 -51 -54
-131 -104 -209 -132 -60 -22 -78 -23 -319 -23 -241 0 -259 1 -320 23 -88 32
-159 80 -263 180 -84 80 -89 83 -110 69 -47 -31 -35 -57 70 -158 137 -131 285
-205 395 -197 l43 3 -30 17 c-29 17 -22 17 207 18 130 0 245 3 255 6 10 3 0
-5 -22 -18 l-40 -23 43 -3 c85 -6 241 58 335 139 26 22 98 111 159 197 62 86
127 177 146 201 126 166 147 382 57 579 -55 120 -99 166 -393 414 -156 131
-291 238 -302 238 -10 0 -39 -21 -64 -47z m97 -21 c16 -18 15 -18 -14 -14 -21
3 -40 -2 -61 -18 l-30 -22 17 26 c31 47 62 57 88 28z"/>
<path d="M935 1616 c-54 -25 -100 -71 -122 -123 -34 -83 0 -214 70 -268 67
-50 104 -55 428 -55 257 0 300 2 313 16 22 22 20 50 -6 68 -19 14 -68 16 -327
16 -287 0 -305 1 -336 20 -44 27 -69 81 -62 133 7 49 31 84 77 108 31 17 61
19 297 19 249 0 263 1 273 19 14 27 13 37 -6 55 -13 14 -53 16 -282 16 -259 0
-268 -1 -317 -24z"/>
<path d="M1092 1438 c-15 -15 -15 -51 0 -66 9 -9 71 -12 219 -12 175 0 210 2
223 16 19 18 20 28 6 55 -10 18 -23 19 -223 19 -152 0 -216 -3 -225 -12z"/>
</g>
</svg>
