<?xml version="1.0" standalone="no"?>
<!DOCTYPE svg PUBLIC "-//W3C//DTD SVG 20010904//EN"
 "http://www.w3.org/TR/2001/REC-SVG-20010904/DTD/svg10.dtd">
<svg version="1.0" xmlns="http://www.w3.org/2000/svg"
 width="300.000000pt" height="300.000000pt" viewBox="0 0 300.000000 300.000000"
 preserveAspectRatio="xMidYMid meet">
<metadata>
Created by potrace 1.10, written by Peter Selinger 2001-2011
</metadata>
<g transform="translate(0.000000,300.000000) scale(0.050000,-0.050000)"
fill="#000000" stroke="none">
<path d="M1390 5970 c-44 -16 -82 -30 -83 -30 -73 -6 -87 -137 -87 -800 0
-625 -2 -663 -35 -649 -188 83 -407 -1 -489 -186 -33 -74 -43 -83 -76 -65
-322 173 -657 -359 -382 -608 l42 -38 -79 -36 c-241 -108 -258 -434 -33 -656
l109 -108 -83 -42 c-151 -76 -217 -241 -171 -427 31 -129 827 -945 920 -945
51 0 97 45 97 96 0 10 -180 196 -399 414 -486 482 -524 549 -391 682 114 114
155 91 584 -336 l386 -385 0 -356 c0 -606 -127 -555 1387 -555 1532 0 1413
-46 1413 548 0 352 0 353 -47 374 -78 36 -133 -6 -133 -103 l0 -79 -1220 0
-1220 0 0 2037 c0 2400 -52 2103 367 2103 l293 0 0 -85 c0 -248 100 -298 580
-291 460 7 540 51 540 294 l0 82 297 0 c409 0 363 149 363 -1183 0 -1239 -2
-1221 130 -1161 l50 23 0 1152 c0 1274 5 1221 -128 1301 -85 52 -2365 68
-2502 18z m1610 -213 c0 -126 -30 -137 -377 -137 -349 0 -383 12 -383 133 l0
67 380 0 380 0 0 -63z m-1842 -1469 l62 -52 0 -259 c0 -143 -7 -257 -15 -254
-47 21 -344 356 -355 400 -42 169 170 282 308 165z m-593 -226 c26 -10 184
-153 351 -319 l304 -302 0 -265 0 -266 -450 451 c-414 415 -450 456 -450 520
0 141 119 229 245 181z m-119 -664 c24 -12 208 -185 409 -385 l365 -363 0
-270 0 -270 -500 500 c-340 340 -507 521 -522 566 -51 153 107 294 248 222z
m3394 -2051 c0 -250 123 -227 -1222 -227 -1340 0 -1218 -22 -1218 221 l0 159
1220 0 1220 0 0 -153z"/>
<path d="M5894 5407 c-7 -7 -3 -30 9 -52 19 -37 16 -40 -31 -31 -44 9 -52 3
-52 -37 0 -26 9 -47 19 -47 11 0 15 14 8 30 -7 19 1 30 21 30 29 0 41 -24 34
-66 -2 -10 5 -12 14 -7 9 6 14 49 10 96 -7 90 -12 104 -32 84z"/>
<path d="M5498 5170 c-9 -46 -3 -111 11 -115 25 -7 31 63 7 77 -13 8 -10 19 7
30 20 13 20 17 2 18 -14 0 -26 -4 -27 -10z"/>
<path d="M5951 5141 c-8 -12 -24 -16 -37 -8 -13 7 -17 6 -9 -3 8 -9 6 -26 -4
-39 -12 -14 -12 -34 0 -52 14 -23 18 -19 19 17 0 30 8 41 23 32 14 -8 18 -5
10 7 -7 12 -2 26 12 31 14 4 19 15 12 23 -7 7 -19 4 -26 -8z"/>
<path d="M5844 5032 c8 -9 5 -35 -6 -56 -18 -34 -16 -37 15 -19 40 20 50 23
97 23 17 0 30 14 30 31 0 29 -3 29 -32 -1 -30 -29 -36 -29 -75 4 -24 19 -37
28 -29 18z"/>
<path d="M2575 4958 c-25 -14 -35 -45 -35 -104 0 -72 -9 -89 -60 -118 -233
-133 -136 -516 131 -516 72 0 109 -31 109 -92 0 -72 -53 -98 -185 -91 -90 4
-128 -3 -157 -29 -78 -71 -24 -168 93 -168 67 0 69 -2 69 -80 0 -146 164 -137
176 11 5 59 24 92 87 148 168 150 110 428 -99 472 -30 6 -74 16 -98 20 -178
36 -77 189 124 189 130 0 151 5 171 41 35 66 -23 139 -111 139 -66 0 -70 4
-70 69 0 96 -73 151 -145 109z"/>
<path d="M5903 4858 c-19 -51 -6 -158 20 -158 10 0 12 24 4 53 -11 44 -7 51
20 41 18 -7 33 -5 33 4 0 10 -14 23 -32 30 -18 7 -27 25 -21 42 7 17 7 30 2
30 -6 0 -17 -19 -26 -42z"/>
<path d="M4940 4471 c-635 -176 -836 -966 -361 -1418 583 -557 1514 -70 1400
733 -70 492 -563 818 -1039 685z m450 -204 c329 -109 513 -549 364 -873 -295
-645 -1247 -441 -1243 266 3 470 421 758 879 607z"/>
<path d="M5231 3766 l-166 -173 -64 72 c-80 92 -132 110 -182 64 -62 -56 -46
-104 74 -230 161 -170 172 -167 433 98 222 225 239 254 177 310 -63 57 -101
38 -272 -141z"/>
<path d="M3430 3465 c-205 -213 -261 -492 -145 -725 55 -110 588 -680 636
-680 179 0 133 117 -163 410 -343 340 -406 491 -300 720 84 184 63 193 543
-211 698 -588 805 -721 861 -1071 50 -315 -10 -469 -391 -996 -489 -677 -573
-722 -1371 -722 -683 0 -790 37 -1158 403 -177 176 -182 179 -243 146 -82 -44
-50 -119 126 -293 395 -389 522 -433 1265 -435 878 -2 1020 72 1541 799 375
522 429 644 429 953 -1 484 -137 684 -904 1329 -614 517 -596 508 -726 373z"/>
<path d="M1903 3253 c-338 -123 -411 -589 -126 -807 129 -99 182 -106 829
-106 629 0 674 6 674 89 0 109 -10 111 -684 111 -588 0 -625 2 -687 40 -165
102 -168 347 -6 462 66 47 73 48 613 54 l546 6 21 47 c15 33 15 58 -2 88 -27
52 -1043 65 -1178 16z"/>
<path d="M2184 2876 c-31 -31 -31 -101 0 -132 40 -40 844 -33 885 7 36 37 38
58 10 110 -25 48 -849 61 -895 15z"/>
</g>
</svg>
